<svg width="252" height="36" viewBox="0 0 252 36" fill="none" xmlns="http://www.w3.org/2000/svg">
<path d="M13.8146 4.90164H27.4468C27.7516 4.90164 28 5.15062 28 5.45387V14.1898C28 14.495 27.7525 14.742 27.4468 14.742H22.4971C22.1914 14.742 22.2543 14.9081 22.2543 15.2133V22.2227C22.2543 22.5279 22.1914 22.6496 22.4971 22.6496H27.4468C27.7525 22.6496 28 22.8966 28 23.2018V31.3816C28 31.6858 27.7506 31.9338 27.4468 31.9338H19.0872C18.7815 31.9338 18.534 32.1809 18.534 32.4861V35.4478C18.534 35.753 18.2866 36 17.9809 36H9.51061C9.20491 36 8.95744 35.753 8.95744 35.4478V32.4861C8.95744 32.1809 8.70997 31.9338 8.40427 31.9338H0.553168C0.24844 31.9338 0 31.6848 0 31.3816V5.45387C0 5.14966 0.24941 4.90164 0.553168 4.90164H4.77083C5.07653 4.90164 5.324 4.65459 5.324 4.3494V2.55223C5.324 2.24705 5.57147 2 5.87717 2H12.719C13.0256 2 13.2741 2.24899 13.2721 2.55611L13.2605 4.34553C13.2586 4.65168 13.507 4.90164 13.8137 4.90164H13.8146Z" fill="#0088FF"/>
<path d="M54.235 23.625C53.4883 25.0717 52.4383 26.2617 51.085 27.195C49.755 28.105 48.0867 28.56 46.08 28.56C44.75 28.56 43.525 28.3383 42.405 27.895C41.3083 27.4283 40.3517 26.7867 39.535 25.97C38.7417 25.1533 38.1117 24.1967 37.645 23.1C37.2017 21.98 36.98 20.755 36.98 19.425C36.98 18.095 37.2017 16.87 37.645 15.75C38.1117 14.63 38.7417 13.6733 39.535 12.88C40.3517 12.0633 41.3083 11.4333 42.405 10.99C43.525 10.5233 44.75 10.29 46.08 10.29C48.0633 10.29 49.7317 10.745 51.085 11.655C52.4383 12.565 53.43 13.7433 54.06 15.19L49.86 16.94C49.4633 16.1467 48.95 15.5517 48.32 15.155C47.7133 14.735 46.9433 14.525 46.01 14.525C45.4033 14.525 44.8317 14.6417 44.295 14.875C43.7583 15.1083 43.28 15.435 42.86 15.855C42.4633 16.275 42.1483 16.7883 41.915 17.395C41.6817 18.0017 41.565 18.6783 41.565 19.425C41.565 20.1717 41.6817 20.8483 41.915 21.455C42.1483 22.0617 42.4633 22.575 42.86 22.995C43.28 23.415 43.7583 23.7417 44.295 23.975C44.8317 24.2083 45.4033 24.325 46.01 24.325C46.9667 24.325 47.7717 24.115 48.425 23.695C49.1017 23.2517 49.6383 22.6217 50.035 21.805L54.235 23.625ZM64.9814 10.29C66.3114 10.29 67.5247 10.5233 68.6214 10.99C69.7414 11.4333 70.698 12.0633 71.4914 12.88C72.308 13.6733 72.938 14.63 73.3814 15.75C73.848 16.87 74.0814 18.095 74.0814 19.425C74.0814 20.755 73.848 21.98 73.3814 23.1C72.938 24.22 72.308 25.1883 71.4914 26.005C70.698 26.7983 69.7414 27.4283 68.6214 27.895C67.5247 28.3383 66.3114 28.56 64.9814 28.56C63.6514 28.56 62.4264 28.3383 61.3064 27.895C60.2097 27.4283 59.253 26.7983 58.4364 26.005C57.643 25.1883 57.013 24.22 56.5464 23.1C56.103 21.98 55.8814 20.755 55.8814 19.425C55.8814 18.095 56.103 16.87 56.5464 15.75C57.013 14.63 57.643 13.6733 58.4364 12.88C59.253 12.0633 60.2097 11.4333 61.3064 10.99C62.4264 10.5233 63.6514 10.29 64.9814 10.29ZM64.9814 24.325C65.5647 24.325 66.1247 24.22 66.6614 24.01C67.2214 23.7767 67.7114 23.45 68.1314 23.03C68.5514 22.61 68.878 22.0967 69.1114 21.49C69.368 20.8833 69.4964 20.195 69.4964 19.425C69.4964 18.655 69.368 17.9667 69.1114 17.36C68.878 16.7533 68.5514 16.24 68.1314 15.82C67.7114 15.4 67.2214 15.085 66.6614 14.875C66.1247 14.6417 65.5647 14.525 64.9814 14.525C64.3747 14.525 63.803 14.6417 63.2664 14.875C62.7297 15.085 62.2514 15.4 61.8314 15.82C61.4114 16.24 61.073 16.7533 60.8164 17.36C60.583 17.9667 60.4664 18.655 60.4664 19.425C60.4664 20.195 60.583 20.8833 60.8164 21.49C61.073 22.0967 61.4114 22.61 61.8314 23.03C62.2514 23.45 62.7297 23.7767 63.2664 24.01C63.803 24.22 64.3747 24.325 64.9814 24.325ZM89.8024 25.935H89.5224C89.1024 26.6583 88.449 27.2767 87.5624 27.79C86.6757 28.3033 85.579 28.56 84.2724 28.56C83.1757 28.56 82.1257 28.3383 81.1224 27.895C80.1424 27.4283 79.2674 26.7983 78.4974 26.005C77.7507 25.1883 77.1557 24.22 76.7124 23.1C76.269 21.98 76.0474 20.755 76.0474 19.425C76.0474 18.095 76.269 16.87 76.7124 15.75C77.1557 14.63 77.7507 13.6733 78.4974 12.88C79.2674 12.0633 80.1424 11.4333 81.1224 10.99C82.1257 10.5233 83.1757 10.29 84.2724 10.29C85.579 10.29 86.6757 10.5467 87.5624 11.06C88.449 11.5733 89.1024 12.1917 89.5224 12.915H89.8024L89.5224 10.465V2.94H94.1074V28H89.8024V25.935ZM85.2174 24.325C85.8241 24.325 86.3957 24.22 86.9324 24.01C87.4924 23.7767 87.9824 23.45 88.4024 23.03C88.8224 22.61 89.1607 22.0967 89.4174 21.49C89.6741 20.8833 89.8024 20.195 89.8024 19.425C89.8024 18.655 89.6741 17.9667 89.4174 17.36C89.1607 16.7533 88.8224 16.24 88.4024 15.82C87.9824 15.4 87.4924 15.085 86.9324 14.875C86.3957 14.6417 85.8241 14.525 85.2174 14.525C84.6107 14.525 84.0274 14.6417 83.4674 14.875C82.9307 15.1083 82.4524 15.435 82.0324 15.855C81.6124 16.275 81.274 16.7883 81.0174 17.395C80.7607 18.0017 80.6324 18.6783 80.6324 19.425C80.6324 20.1717 80.7607 20.8483 81.0174 21.455C81.274 22.0617 81.6124 22.575 82.0324 22.995C82.4524 23.415 82.9307 23.7417 83.4674 23.975C84.0274 24.2083 84.6107 24.325 85.2174 24.325ZM114.083 23.87C113.289 25.27 112.216 26.4017 110.863 27.265C109.533 28.1283 107.899 28.56 105.963 28.56C104.656 28.56 103.443 28.3383 102.323 27.895C101.226 27.4283 100.269 26.7867 99.4528 25.97C98.6361 25.1533 97.9945 24.1967 97.5278 23.1C97.0845 21.98 96.8628 20.755 96.8628 19.425C96.8628 18.1883 97.0845 17.0217 97.5278 15.925C97.9711 14.805 98.5895 13.8367 99.3828 13.02C100.176 12.18 101.109 11.515 102.183 11.025C103.279 10.535 104.481 10.29 105.788 10.29C107.164 10.29 108.389 10.5233 109.463 10.99C110.536 11.4333 111.434 12.0633 112.158 12.88C112.881 13.6733 113.429 14.6183 113.803 15.715C114.176 16.8117 114.363 18.0017 114.363 19.285C114.363 19.4483 114.363 19.5883 114.363 19.705C114.339 19.845 114.328 19.9733 114.328 20.09C114.304 20.2067 114.293 20.335 114.293 20.475H101.378C101.471 21.175 101.658 21.7817 101.938 22.295C102.241 22.785 102.603 23.205 103.023 23.555C103.466 23.8817 103.944 24.1267 104.458 24.29C104.971 24.43 105.496 24.5 106.033 24.5C107.083 24.5 107.946 24.2667 108.623 23.8C109.323 23.31 109.871 22.7033 110.268 21.98L114.083 23.87ZM109.918 17.22C109.894 16.9167 109.789 16.5783 109.603 16.205C109.439 15.8317 109.183 15.4817 108.833 15.155C108.506 14.8283 108.086 14.56 107.573 14.35C107.083 14.14 106.488 14.035 105.788 14.035C104.808 14.035 103.944 14.315 103.198 14.875C102.451 15.435 101.926 16.2167 101.623 17.22H109.918ZM117.291 2.94H121.876V10.465L121.596 12.915H121.876C122.296 12.1917 122.949 11.5733 123.836 11.06C124.723 10.5467 125.819 10.29 127.126 10.29C128.223 10.29 129.261 10.5233 130.241 10.99C131.244 11.4333 132.119 12.0633 132.866 12.88C133.636 13.6733 134.243 14.63 134.686 15.75C135.129 16.87 135.351 18.095 135.351 19.425C135.351 20.755 135.129 21.98 134.686 23.1C134.243 24.22 133.636 25.1883 132.866 26.005C132.119 26.7983 131.244 27.4283 130.241 27.895C129.261 28.3383 128.223 28.56 127.126 28.56C125.819 28.56 124.723 28.3033 123.836 27.79C122.949 27.2767 122.296 26.6583 121.876 25.935H121.596V28H117.291V2.94ZM126.181 24.325C126.788 24.325 127.359 24.2083 127.896 23.975C128.456 23.7417 128.946 23.415 129.366 22.995C129.786 22.575 130.124 22.0617 130.381 21.455C130.638 20.8483 130.766 20.1717 130.766 19.425C130.766 18.6783 130.638 18.0017 130.381 17.395C130.124 16.7883 129.786 16.275 129.366 15.855C128.946 15.435 128.456 15.1083 127.896 14.875C127.359 14.6417 126.788 14.525 126.181 14.525C125.574 14.525 124.991 14.6417 124.431 14.875C123.894 15.085 123.416 15.4 122.996 15.82C122.576 16.24 122.238 16.7533 121.981 17.36C121.724 17.9667 121.596 18.655 121.596 19.425C121.596 20.195 121.724 20.8833 121.981 21.49C122.238 22.0967 122.576 22.61 122.996 23.03C123.416 23.45 123.894 23.7767 124.431 24.01C124.991 24.22 125.574 24.325 126.181 24.325ZM138.106 28V2.94H142.691V28H138.106ZM154.566 10.29C155.896 10.29 157.11 10.5233 158.206 10.99C159.326 11.4333 160.283 12.0633 161.076 12.88C161.893 13.6733 162.523 14.63 162.966 15.75C163.433 16.87 163.666 18.095 163.666 19.425C163.666 20.755 163.433 21.98 162.966 23.1C162.523 24.22 161.893 25.1883 161.076 26.005C160.283 26.7983 159.326 27.4283 158.206 27.895C157.11 28.3383 155.896 28.56 154.566 28.56C153.236 28.56 152.011 28.3383 150.891 27.895C149.795 27.4283 148.838 26.7983 148.021 26.005C147.228 25.1883 146.598 24.22 146.131 23.1C145.688 21.98 145.466 20.755 145.466 19.425C145.466 18.095 145.688 16.87 146.131 15.75C146.598 14.63 147.228 13.6733 148.021 12.88C148.838 12.0633 149.795 11.4333 150.891 10.99C152.011 10.5233 153.236 10.29 154.566 10.29ZM154.566 24.325C155.15 24.325 155.71 24.22 156.246 24.01C156.806 23.7767 157.296 23.45 157.716 23.03C158.136 22.61 158.463 22.0967 158.696 21.49C158.953 20.8833 159.081 20.195 159.081 19.425C159.081 18.655 158.953 17.9667 158.696 17.36C158.463 16.7533 158.136 16.24 157.716 15.82C157.296 15.4 156.806 15.085 156.246 14.875C155.71 14.6417 155.15 14.525 154.566 14.525C153.96 14.525 153.388 14.6417 152.851 14.875C152.315 15.085 151.836 15.4 151.416 15.82C150.996 16.24 150.658 16.7533 150.401 17.36C150.168 17.9667 150.051 18.655 150.051 19.425C150.051 20.195 150.168 20.8833 150.401 21.49C150.658 22.0967 150.996 22.61 151.416 23.03C151.836 23.45 152.315 23.7767 152.851 24.01C153.388 24.22 153.96 24.325 154.566 24.325ZM170.541 19.285L164.661 10.85H170.086L173.201 15.61H173.446L176.386 10.85H181.986L175.966 19.285L181.986 28H176.596L173.376 23.1H173.131L170.016 28H164.591L170.541 19.285Z" fill="black"/>
</svg>
